<svg xmlns="http://www.w3.org/2000/svg" viewBox="0 0 280 45" fill="currentColor">
  <g>
    <!-- R -->
    <path d="M5 5h20c8 0 12 4 12 10 0 4-2 7-6 8l8 17h-8l-7-16h-7v16h-6V5zm6 6v12h14c4 0 6-2 6-6s-2-6-6-6H11z"/>
    <!-- J -->
    <path d="M55 5h6v25c0 6-4 10-10 10s-10-4-10-10h6c0 2 2 4 4 4s4-2 4-4V5z"/>
    <!-- A -->
    <path d="M75 5h8l12 35h-7l-2-7H78l-2 7h-7L75 5zm4 8l-4 14h8l-4-14z"/>
    <!-- D -->
    <path d="M110 5h16c10 0 16 6 16 17.5S136 40 126 40h-16V5zm6 6v24h10c6 0 10-4 10-12s-4-12-10-12h-10z"/>
    <!-- A -->
    <path d="M150 5h8l12 35h-7l-2-7h-8l-2 7h-7L150 5zm4 8l-4 14h8l-4-14z"/>
    <!-- M -->
    <path d="M185 5h8l8 20 8-20h8v35h-6V15l-6 15h-8l-6-15v25h-6V5z"/>
    <!-- S -->
    <path d="M240 5h20v6h-14v8h12c6 0 10 4 10 10s-4 10-10 10h-20v-6h14v-8h-12c-6 0-10-4-10-10s4-10 10-10z"/>
  </g>
</svg>