<svg xmlns="http://www.w3.org/2000/svg" viewBox="0 0 120 24" fill="currentColor">
  <!-- R -->
  <path d="M2 2h8c3 0 5 1.5 5 4 0 1.5-1 2.5-2.5 3L15 16h-3l-2.5-5.5H5V16H2V2zm3 2v4h5c1 0 2-.5 2-2s-1-2-2-2H5z"/>
  <!-- J -->
  <path d="M18 2h3v8c0 2.5-1.5 4-4 4s-4-1.5-4-4h3c0 1 .5 1.5 1 1.5s1-.5 1-1.5V2z"/>
  <!-- A -->
  <path d="M26 2h3l4 14h-3l-.5-2h-4l-.5 2h-3L26 2zm1.5 4l-1.5 6h3l-1.5-6z"/>
  <!-- D -->
  <path d="M36 2h6c3.5 0 6 2.5 6 7s-2.5 7-6 7h-6V2zm3 2v10h3c2 0 3-1.5 3-5s-1-5-3-5h-3z"/>
  <!-- A -->
  <path d="M52 2h3l4 14h-3l-.5-2h-4l-.5 2h-3L52 2zm1.5 4l-1.5 6h3l-1.5-6z"/>
  <!-- M -->
  <path d="M62 2h3l3 8 3-8h3v14h-3V6l-2.5 6h-1L64.5 6v10h-2.5V2z"/>
  <!-- S -->
  <path d="M78 2h6v2h-4v3h3c2 0 3 1 3 3s-1 3-3 3h-6v-2h4v-3h-3c-2 0-3-1-3-3s1-3 3-3z"/>
</svg>
